<svg width="400" height="250" viewBox="0 0 400 250" fill="none" xmlns="http://www.w3.org/2000/svg">
  <!-- Background -->
  <rect width="400" height="250" fill="#f8fafc" rx="12"/>
  
  <!-- Header -->
  <rect x="16" y="16" width="368" height="40" fill="#e2e8f0" rx="8"/>
  <rect x="32" y="28" width="80" height="16" fill="#64748b" rx="4"/>
  <rect x="280" y="28" width="24" height="16" fill="#64748b" rx="4"/>
  <rect x="320" y="28" width="24" height="16" fill="#64748b" rx="4"/>
  <rect x="360" y="28" width="24" height="16" fill="#64748b" rx="4"/>
  
  <!-- Sidebar -->
  <rect x="16" y="72" width="80" height="162" fill="#f1f5f9" rx="8"/>
  <rect x="28" y="84" width="56" height="8" fill="#64748b" rx="4"/>
  <rect x="28" y="100" width="56" height="8" fill="#64748b" rx="4"/>
  <rect x="28" y="116" width="56" height="8" fill="#64748b" rx="4"/>
  <rect x="28" y="132" width="56" height="8" fill="#64748b" rx="4"/>
  <rect x="28" y="148" width="56" height="8" fill="#64748b" rx="4"/>
  
  <!-- Main Content -->
  <rect x="112" y="72" width="272" height="80" fill="#ffffff" rx="8" stroke="#e2e8f0" stroke-width="1"/>
  <rect x="128" y="84" width="120" height="16" fill="#1e293b" rx="4"/>
  <rect x="128" y="108" width="80" height="12" fill="#64748b" rx="4"/>
  <rect x="128" y="124" width="60" height="12" fill="#64748b" rx="4"/>
  <rect x="280" y="84" width="80" height="16" fill="#3b82f6" rx="4"/>
  
  <!-- Product Grid -->
  <rect x="112" y="168" width="80" height="66" fill="#ffffff" rx="8" stroke="#e2e8f0" stroke-width="1"/>
  <rect x="120" y="176" width="64" height="40" fill="#f1f5f9" rx="4"/>
  <rect x="120" y="220" width="40" height="8" fill="#64748b" rx="4"/>
  <rect x="120" y="232" width="24" height="6" fill="#64748b" rx="3"/>
  
  <rect x="208" y="168" width="80" height="66" fill="#ffffff" rx="8" stroke="#e2e8f0" stroke-width="1"/>
  <rect x="216" y="176" width="64" height="40" fill="#f1f5f9" rx="4"/>
  <rect x="216" y="220" width="40" height="8" fill="#64748b" rx="4"/>
  <rect x="216" y="232" width="24" height="6" fill="#64748b" rx="3"/>
  
  <rect x="304" y="168" width="80" height="66" fill="#ffffff" rx="8" stroke="#e2e8f0" stroke-width="1"/>
  <rect x="312" y="176" width="64" height="40" fill="#f1f5f9" rx="4"/>
  <rect x="312" y="220" width="40" height="8" fill="#64748b" rx="4"/>
  <rect x="312" y="232" width="24" height="6" fill="#64748b" rx="3"/>
</svg> 