<svg width="400" height="250" viewBox="0 0 400 250" fill="none" xmlns="http://www.w3.org/2000/svg">
  <!-- Background -->
  <rect width="400" height="250" fill="#f8fafc" rx="12"/>
  
  <!-- Header -->
  <rect x="16" y="16" width="368" height="40" fill="#e2e8f0" rx="8"/>
  <rect x="32" y="28" width="80" height="16" fill="#64748b" rx="4"/>
  <rect x="280" y="28" width="24" height="16" fill="#64748b" rx="4"/>
  <rect x="320" y="28" width="24" height="16" fill="#64748b" rx="4"/>
  <rect x="360" y="28" width="24" height="16" fill="#64748b" rx="4"/>
  
  <!-- Hero Section -->
  <rect x="16" y="72" width="368" height="60" fill="#ffffff" rx="8" stroke="#e2e8f0" stroke-width="1"/>
  <rect x="32" y="84" width="120" height="20" fill="#1e293b" rx="4"/>
  <rect x="32" y="108" width="200" height="12" fill="#64748b" rx="4"/>
  <rect x="280" y="84" width="80" height="32" fill="#3b82f6" rx="4"/>
  
  <!-- Skills Section -->
  <rect x="16" y="148" width="368" height="86" fill="#ffffff" rx="8" stroke="#e2e8f0" stroke-width="1"/>
  
  <!-- Skill Cards -->
  <rect x="32" y="160" width="100" height="62" fill="#f1f5f9" rx="6"/>
  <rect x="40" y="168" width="20" height="20" fill="#3b82f6" rx="4"/>
  <rect x="68" y="172" width="56" height="8" fill="#64748b" rx="4"/>
  <rect x="68" y="184" width="40" height="6" fill="#64748b" rx="3"/>
  <rect x="68" y="194" width="48" height="6" fill="#64748b" rx="3"/>
  <rect x="68" y="204" width="36" height="6" fill="#64748b" rx="3"/>
  
  <rect x="148" y="160" width="100" height="62" fill="#f1f5f9" rx="6"/>
  <rect x="156" y="168" width="20" height="20" fill="#10b981" rx="4"/>
  <rect x="184" y="172" width="56" height="8" fill="#64748b" rx="4"/>
  <rect x="184" y="184" width="40" height="6" fill="#64748b" rx="3"/>
  <rect x="184" y="194" width="48" height="6" fill="#64748b" rx="3"/>
  <rect x="184" y="204" width="36" height="6" fill="#64748b" rx="3"/>
  
  <rect x="264" y="160" width="100" height="62" fill="#f1f5f9" rx="6"/>
  <rect x="272" y="168" width="20" height="20" fill="#f59e0b" rx="4"/>
  <rect x="300" y="172" width="56" height="8" fill="#64748b" rx="4"/>
  <rect x="300" y="184" width="40" height="6" fill="#64748b" rx="3"/>
  <rect x="300" y="194" width="48" height="6" fill="#64748b" rx="3"/>
  <rect x="300" y="204" width="36" height="6" fill="#64748b" rx="3"/>
</svg> 