<svg width="400" height="250" viewBox="0 0 400 250" fill="none" xmlns="http://www.w3.org/2000/svg">
  <!-- Background -->
  <rect width="400" height="250" fill="#0f172a" rx="12"/>
  
  <!-- Header -->
  <rect x="16" y="16" width="368" height="40" fill="#1e293b" rx="8"/>
  <rect x="32" y="28" width="120" height="16" fill="#e2e8f0" rx="4"/>
  <rect x="280" y="28" width="24" height="16" fill="#64748b" rx="4"/>
  <rect x="320" y="28" width="24" height="16" fill="#64748b" rx="4"/>
  <rect x="360" y="28" width="24" height="16" fill="#64748b" rx="4"/>
  
  <!-- Sidebar -->
  <rect x="16" y="72" width="120" height="162" fill="#1e293b" rx="8"/>
  <rect x="28" y="84" width="92" height="8" fill="#64748b" rx="4"/>
  <rect x="28" y="100" width="92" height="8" fill="#64748b" rx="4"/>
  <rect x="28" y="116" width="92" height="8" fill="#64748b" rx="4"/>
  <rect x="28" y="132" width="92" height="8" fill="#64748b" rx="4"/>
  <rect x="28" y="148" width="92" height="8" fill="#64748b" rx="4"/>
  <rect x="28" y="164" width="92" height="8" fill="#64748b" rx="4"/>
  <rect x="28" y="180" width="92" height="8" fill="#64748b" rx="4"/>
  <rect x="28" y="196" width="92" height="8" fill="#64748b" rx="4"/>
  <rect x="28" y="212" width="92" height="8" fill="#64748b" rx="4"/>
  
  <!-- Main Content -->
  <rect x="152" y="72" width="232" height="162" fill="#1e293b" rx="8"/>
  
  <!-- Code Block -->
  <rect x="164" y="84" width="208" height="140" fill="#0f172a" rx="6"/>
  
  <!-- Code Lines -->
  <rect x="172" y="96" width="60" height="8" fill="#22d3ee" rx="2"/>
  <rect x="172" y="108" width="80" height="8" fill="#f1f5f9" rx="2"/>
  <rect x="172" y="120" width="120" height="8" fill="#f1f5f9" rx="2"/>
  <rect x="172" y="132" width="100" height="8" fill="#f1f5f9" rx="2"/>
  <rect x="172" y="144" width="140" height="8" fill="#f1f5f9" rx="2"/>
  <rect x="172" y="156" width="90" height="8" fill="#f1f5f9" rx="2"/>
  <rect x="172" y="168" width="110" height="8" fill="#f1f5f9" rx="2"/>
  <rect x="172" y="180" width="70" height="8" fill="#f1f5f9" rx="2"/>
  <rect x="172" y="192" width="130" height="8" fill="#f1f5f9" rx="2"/>
  <rect x="172" y="204" width="95" height="8" fill="#f1f5f9" rx="2"/>
  
  <!-- Status Badge -->
  <rect x="320" y="84" width="40" height="16" fill="#10b981" rx="8"/>
  <rect x="328" y="90" width="24" height="4" fill="#ffffff" rx="2"/>
</svg> 